<svg xmlns:xlink="http://www.w3.org/1999/xlink" xmlns="http://www.w3.org/2000/svg" style="width: 36px; height: 36px; fill: var(--color-icon-white);" width="36"  height="36" ><defs><symbol id="homeKitchenFill" xmlns="http://www.w3.org/2000/svg" viewBox="0 0 24 24"><path d="M7 3C5.522 3 4 4.03 4 5.667v1.86A4.5 4.5 0 019 12v1h6v-1a4.5 4.5 0 015-4.473v-1.86C20 4.03 18.478 3 17 3H7z"></path><path d="M8 12a3.5 3.5 0 10-5 3.163V17.5a2 2 0 002 2V21h2v-1.5h10V21h2v-1.5a2 2 0 002-2v-2.337A3.5 3.5 0 1016 12v2H8v-2z"></path></symbol></defs><use xlink:href="#homeKitchenFill" fill="#FFFFFF"></use></svg>